<svg version="1.1" viewBox="0.0 0.0 345.6010498687664 345.6010498687664" fill="none" stroke="none" stroke-linecap="square" stroke-miterlimit="10" xmlns:xlink="http://www.w3.org/1999/xlink" xmlns="http://www.w3.org/2000/svg"><clipPath id="p.0"><path d="m0 0l345.60104 0l0 345.60104l-345.60104 0l0 -345.60104z" clip-rule="nonzero"/></clipPath><g clip-path="url(#p.0)"><path fill="#000000" fill-opacity="0.0" d="m0 0l345.60104 0l0 345.60104l-345.60104 0z" fill-rule="evenodd"/><defs><radialGradient id="p.1" gradientUnits="userSpaceOnUse" gradientTransform="matrix(15.638017543273415 0.0 0.0 15.638017543273415 0.0 0.0)" spreadMethod="pad" cx="11.049972128953002" cy="11.050017344825937" fx="11.049972128953002" fy="11.050017344825937" r="15.638017654418945"><stop offset="0.0" stop-color="#500080"/><stop offset="1.0" stop-color="#000000"/></radialGradient></defs><path fill="url(#p.1)" d="m-0.09797979 172.80037l0 0c0 -95.514824 77.408905 -172.94489 172.89763 -172.94489l0 0c45.855316 0 89.83249 18.220926 122.25711 50.65438c32.42459 32.433456 50.640533 76.42267 50.640533 122.290504l0 0c0 95.51482 -77.408905 172.94487 -172.89764 172.94487l0 0c-95.48872 0 -172.89763 -77.43005 -172.89763 -172.94487z" fill-rule="evenodd"/><g filter="url(#shadowFilter-p.2)"><use xlink:href="#p.2" transform=""/></g><defs><filter id="shadowFilter-p.2" filterUnits="userSpaceOnUse"><feGaussianBlur in="SourceAlpha" stdDeviation="5.0" result="blur"/><feComponentTransfer in="blur" color-interpolation-filters="sRGB"><feFuncR type="linear" slope="0" intercept="0.0"/><feFuncG type="linear" slope="0" intercept="0.0"/><feFuncB type="linear" slope="0" intercept="0.0"/><feFuncA type="linear" slope="1.0" intercept="0"/></feComponentTransfer></filter></defs><g id="p.2"><path fill="#000000" d="m43.238987 117.37865l-3.3571358 15.760834l17.81076 0l-16.708797 78.727295l-17.81076 0l-3.3571358 15.735214l52.586586 0l3.3571396 -15.735214l-17.785133 0l16.708794 -78.727295l17.785133 0l3.3571396 -15.760834z" fill-rule="evenodd"/><path fill="#000000" d="m121.063835 117.224884l-14.453629 68.01506c-1.7597198 8.303268 -1.4265671 15.735199 0.9994583 22.295807c2.4431 6.560608 6.628845 11.703171 12.55722 15.427689c5.928383 3.7245178 13.138107 5.5867615 21.62918 5.5867615c8.508163 0 16.51233 -1.8622437 24.012497 -5.5867615c7.5172424 -3.7245178 13.889832 -8.867081 19.117737 -15.427689c5.2279053 -6.560608 8.72171 -13.992538 10.48143 -22.295807l14.453629 -68.01506l-16.221893 0l-14.146088 66.605545c-1.127594 5.34758 -3.4084015 10.1484375 -6.842407 14.402588c-3.4169312 4.2541504 -7.5258026 7.645508 -12.326584 10.174072c-4.7837067 2.5114746 -9.798065 3.7672272 -15.043045 3.7672272c-4.9203796 0 -9.191544 -1.2557526 -12.813492 -3.7672272c-3.6048737 -2.5285645 -6.2188187 -5.919922 -7.8418655 -10.174072c-1.605957 -4.2541504 -1.8451462 -9.055008 -0.7175598 -14.402588l14.146111 -66.605545z" fill-rule="evenodd"/><path fill="#000000" d="m288.448 116.430435c-7.978546 0 -15.734955 1.418045 -23.269318 4.2541428c-7.5343323 2.8360977 -14.436523 6.799797 -20.706589 11.891106c-6.2700806 5.0913086 -11.57486 11.05394 -15.914368 17.887909c-4.339508 6.8168793 -7.346405 14.163391 -9.020706 22.039536c-1.6913757 7.978653 -1.8280487 15.402054 -0.41001892 22.270187c1.4351044 6.868149 4.2284393 12.882034 8.38002 18.041687c4.1515656 5.1425476 9.379471 9.157501 15.683716 12.044861c6.321335 2.8702698 13.471252 4.3054047 21.449799 4.3054047c6.936371 0 13.616455 -1.1788635 20.040314 -3.5365906c6.440918 -2.3577118 12.343658 -5.68927 17.708252 -9.994675c5.381653 -4.3053894 9.960327 -9.4223175 13.736053 -15.3508c3.7757263 -5.928467 6.432373 -12.514694 7.970001 -19.758698c0.20501709 -0.939682 0.3843994 -1.9049835 0.538147 -2.8959045c0.17086792 -1.0079956 0.31607056 -2.0587158 0.43566895 -3.1521606c0.13668823 -1.1105194 0.22210693 -2.2466583 0.25628662 -3.4084473l-48.793793 0l-3.587799 16.862823l31.311615 0l-0.20043945 0.94821167c-0.6833801 3.2461243 -2.1184998 6.312866 -4.3053284 9.200226c-2.1868591 2.8873444 -4.9374695 5.4329987 -8.251892 7.636963c-3.2973328 2.203949 -6.910736 3.9124298 -10.84021 5.125473c-3.9294739 1.1959381 -7.935852 1.7939148 -12.0190735 1.7939148c-5.4670715 0 -10.421631 -1.0421753 -14.863647 -3.1265411c-4.4249268 -2.1014404 -8.106674 -4.988785 -11.045242 -8.662048c-2.9385529 -3.6903534 -4.945999 -7.9701233 -6.022339 -12.839325c-1.0592499 -4.8862762 -1.0079956 -10.054474 0.15376282 -15.504562c1.2130127 -5.67218 3.3144226 -10.891632 6.304245 -15.658325c3.006897 -4.783783 6.697174 -8.961044 11.070862 -12.531784c4.3907623 -3.5707397 9.182999 -6.355591 14.376724 -8.354523c5.210846 -1.9989319 10.652313 -2.9983978 16.324402 -2.9983978c3.4682007 0 6.8167725 0.52963257 10.045776 1.5888977c3.2460938 1.0421753 6.3042603 2.562729 9.174469 4.561661c2.8872986 1.9989471 5.58667 4.5189667 8.098145 7.560074l13.479797 -11.506683c-1.9647522 -3.6732635 -4.8007812 -6.919388 -8.508179 -9.738403c-3.690277 -2.8360977 -8.02124 -5.0400467 -12.992889 -6.611862c-4.9545593 -1.5888977 -10.216614 -2.3833466 -15.786224 -2.3833466z" fill-rule="evenodd"/><path stroke="#000000" stroke-width="12.0" stroke-linejoin="round" stroke-linecap="butt" d="m43.238987 117.37865l-3.3571358 15.760834l17.81076 0l-16.708797 78.727295l-17.81076 0l-3.3571358 15.735214l52.586586 0l3.3571396 -15.735214l-17.785133 0l16.708794 -78.727295l17.785133 0l3.3571396 -15.760834z" fill-rule="evenodd"/><path stroke="#000000" stroke-width="12.0" stroke-linejoin="round" stroke-linecap="butt" d="m121.063835 117.224884l-14.453629 68.01506c-1.7597198 8.303268 -1.4265671 15.735199 0.9994583 22.295807c2.4431 6.560608 6.628845 11.703171 12.55722 15.427689c5.928383 3.7245178 13.138107 5.5867615 21.62918 5.5867615c8.508163 0 16.51233 -1.8622437 24.012497 -5.5867615c7.5172424 -3.7245178 13.889832 -8.867081 19.117737 -15.427689c5.2279053 -6.560608 8.72171 -13.992538 10.48143 -22.295807l14.453629 -68.01506l-16.221893 0l-14.146088 66.605545c-1.127594 5.34758 -3.4084015 10.1484375 -6.842407 14.402588c-3.4169312 4.2541504 -7.5258026 7.645508 -12.326584 10.174072c-4.7837067 2.5114746 -9.798065 3.7672272 -15.043045 3.7672272c-4.9203796 0 -9.191544 -1.2557526 -12.813492 -3.7672272c-3.6048737 -2.5285645 -6.2188187 -5.919922 -7.8418655 -10.174072c-1.605957 -4.2541504 -1.8451462 -9.055008 -0.7175598 -14.402588l14.146111 -66.605545z" fill-rule="evenodd"/><path stroke="#000000" stroke-width="12.0" stroke-linejoin="round" stroke-linecap="butt" d="m288.448 116.430435c-7.978546 0 -15.734955 1.418045 -23.269318 4.2541428c-7.5343323 2.8360977 -14.436523 6.799797 -20.706589 11.891106c-6.2700806 5.0913086 -11.57486 11.05394 -15.914368 17.887909c-4.339508 6.8168793 -7.346405 14.163391 -9.020706 22.039536c-1.6913757 7.978653 -1.8280487 15.402054 -0.41001892 22.270187c1.4351044 6.868149 4.2284393 12.882034 8.38002 18.041687c4.1515656 5.1425476 9.379471 9.157501 15.683716 12.044861c6.321335 2.8702698 13.471252 4.3054047 21.449799 4.3054047c6.936371 0 13.616455 -1.1788635 20.040314 -3.5365906c6.440918 -2.3577118 12.343658 -5.68927 17.708252 -9.994675c5.381653 -4.3053894 9.960327 -9.4223175 13.736053 -15.3508c3.7757263 -5.928467 6.432373 -12.514694 7.970001 -19.758698c0.20501709 -0.939682 0.3843994 -1.9049835 0.538147 -2.8959045c0.17086792 -1.0079956 0.31607056 -2.0587158 0.43566895 -3.1521606c0.13668823 -1.1105194 0.22210693 -2.2466583 0.25628662 -3.4084473l-48.793793 0l-3.587799 16.862823l31.311615 0l-0.20043945 0.94821167c-0.6833801 3.2461243 -2.1184998 6.312866 -4.3053284 9.200226c-2.1868591 2.8873444 -4.9374695 5.4329987 -8.251892 7.636963c-3.2973328 2.203949 -6.910736 3.9124298 -10.84021 5.125473c-3.9294739 1.1959381 -7.935852 1.7939148 -12.0190735 1.7939148c-5.4670715 0 -10.421631 -1.0421753 -14.863647 -3.1265411c-4.4249268 -2.1014404 -8.106674 -4.988785 -11.045242 -8.662048c-2.9385529 -3.6903534 -4.945999 -7.9701233 -6.022339 -12.839325c-1.0592499 -4.8862762 -1.0079956 -10.054474 0.15376282 -15.504562c1.2130127 -5.67218 3.3144226 -10.891632 6.304245 -15.658325c3.006897 -4.783783 6.697174 -8.961044 11.070862 -12.531784c4.3907623 -3.5707397 9.182999 -6.355591 14.376724 -8.354523c5.210846 -1.9989319 10.652313 -2.9983978 16.324402 -2.9983978c3.4682007 0 6.8167725 0.52963257 10.045776 1.5888977c3.2460938 1.0421753 6.3042603 2.562729 9.174469 4.561661c2.8872986 1.9989471 5.58667 4.5189667 8.098145 7.560074l13.479797 -11.506683c-1.9647522 -3.6732635 -4.8007812 -6.919388 -8.508179 -9.738403c-3.690277 -2.8360977 -8.02124 -5.0400467 -12.992889 -6.611862c-4.9545593 -1.5888977 -10.216614 -2.3833466 -15.786224 -2.3833466z" fill-rule="evenodd"/></g><g filter="url(#shadowFilter-p.3)"><use xlink:href="#p.3" transform=""/></g><defs><filter id="shadowFilter-p.3" filterUnits="userSpaceOnUse"><feGaussianBlur in="SourceAlpha" stdDeviation="5.0" result="blur"/><feComponentTransfer in="blur" color-interpolation-filters="sRGB"><feFuncR type="linear" slope="0" intercept="0.0"/><feFuncG type="linear" slope="0" intercept="0.0"/><feFuncB type="linear" slope="0" intercept="1.0"/><feFuncA type="linear" slope="1.0" intercept="0"/></feComponentTransfer></filter></defs><g id="p.3"><defs><linearGradient id="p.4" gradientUnits="userSpaceOnUse" gradientTransform="matrix(10.617717416990438 0.0 0.0 10.617717416990438 0.0 0.0)" spreadMethod="pad" x1="1.8643637184276145" y1="10.965570478625345" x2="1.8643253352408424" y2="21.583287895546405"><stop offset="0.0" stop-color="#00a0ff"/><stop offset="1.0" stop-color="#0000ff"/></linearGradient></defs><path fill="url(#p.4)" d="m43.218357 117.37865l-3.3571358 15.760834l17.81076 0l-16.708801 78.727295l-17.810757 0l-3.3571358 15.735214l52.586586 0l3.357132 -15.735214l-17.78513 0l16.708797 -78.727295l17.785133 0l3.3571396 -15.760834z" fill-rule="evenodd"/><defs><linearGradient id="p.5" gradientUnits="userSpaceOnUse" gradientTransform="matrix(10.617717416990438 0.0 0.0 10.617717416990438 0.0 0.0)" spreadMethod="pad" x1="1.8643637184276145" y1="10.965570478625345" x2="1.8643253352408424" y2="21.583287895546405"><stop offset="0.0" stop-color="#00a0ff"/><stop offset="1.0" stop-color="#0000ff"/></linearGradient></defs><path fill="url(#p.5)" d="m121.0432 117.224884l-14.453621 68.01506c-1.7597198 8.303268 -1.4265671 15.735199 0.9994507 22.295807c2.4431076 6.560608 6.628853 11.703171 12.557228 15.427689c5.928383 3.7245178 13.138107 5.5867615 21.62918 5.5867615c8.508163 0 16.51233 -1.8622437 24.012497 -5.5867615c7.5172424 -3.7245178 13.889832 -8.867081 19.117737 -15.427689c5.2279053 -6.560608 8.72171 -13.992538 10.48143 -22.295807l14.453629 -68.01506l-16.221893 0l-14.146088 66.605545c-1.127594 5.34758 -3.4084015 10.1484375 -6.842407 14.402588c-3.4169312 4.2541504 -7.5258026 7.645508 -12.326584 10.174072c-4.7837067 2.5114746 -9.798065 3.7672272 -15.043045 3.7672272c-4.9203796 0 -9.191544 -1.2557526 -12.813492 -3.7672272c-3.6048737 -2.5285645 -6.2188263 -5.919922 -7.8418655 -10.174072c-1.605957 -4.2541504 -1.8451462 -9.055008 -0.7175598 -14.402588l14.146095 -66.605545z" fill-rule="evenodd"/><defs><linearGradient id="p.6" gradientUnits="userSpaceOnUse" gradientTransform="matrix(10.617717416990438 0.0 0.0 10.617717416990438 0.0 0.0)" spreadMethod="pad" x1="1.8643637184276145" y1="10.965570478625345" x2="1.8643253352408424" y2="21.583287895546405"><stop offset="0.0" stop-color="#00a0ff"/><stop offset="1.0" stop-color="#0000ff"/></linearGradient></defs><path fill="url(#p.6)" d="m288.42737 116.430435c-7.978546 0 -15.734955 1.418045 -23.269318 4.2541428c-7.5343323 2.8360977 -14.436523 6.799797 -20.706589 11.891106c-6.2700806 5.0913086 -11.57486 11.05394 -15.914368 17.887909c-4.339508 6.8168793 -7.346405 14.163391 -9.020706 22.039536c-1.6913757 7.978653 -1.8280487 15.402054 -0.41003418 22.270187c1.4351196 6.868149 4.2284546 12.882034 8.380035 18.041687c4.1515656 5.1425476 9.379471 9.157501 15.683716 12.044861c6.321335 2.8702698 13.471252 4.3054047 21.449799 4.3054047c6.936371 0 13.616455 -1.1788635 20.040314 -3.5365906c6.440918 -2.3577118 12.343658 -5.68927 17.708252 -9.994675c5.381653 -4.3053894 9.960327 -9.4223175 13.736053 -15.3508c3.7757263 -5.928467 6.432373 -12.514694 7.970001 -19.758698c0.20501709 -0.939682 0.3843994 -1.9049835 0.538147 -2.8959045c0.17086792 -1.0079956 0.31607056 -2.0587158 0.43566895 -3.1521606c0.13668823 -1.1105194 0.22210693 -2.2466583 0.25628662 -3.4084473l-48.793793 0l-3.587799 16.862823l31.311615 0l-0.20043945 0.94821167c-0.6833801 3.2461243 -2.1184998 6.312866 -4.3053284 9.200226c-2.1868591 2.8873444 -4.9374695 5.4329987 -8.251892 7.636963c-3.2973328 2.203949 -6.910736 3.9124298 -10.84021 5.125473c-3.9294739 1.1959381 -7.935852 1.7939148 -12.0190735 1.7939148c-5.467102 0 -10.421631 -1.0421753 -14.863647 -3.1265411c-4.424942 -2.1014404 -8.106674 -4.988785 -11.045242 -8.662048c-2.9385529 -3.6903534 -4.945999 -7.9701233 -6.022339 -12.839325c-1.0592499 -4.8862762 -1.0079956 -10.054474 0.15376282 -15.504562c1.2130127 -5.67218 3.3144226 -10.891632 6.304245 -15.658325c3.006897 -4.783783 6.697174 -8.961044 11.070847 -12.531784c4.3907776 -3.5707397 9.183014 -6.355591 14.3767395 -8.354523c5.210846 -1.9989319 10.652313 -2.9983978 16.324402 -2.9983978c3.4682007 0 6.8167725 0.52963257 10.045776 1.5888977c3.2460938 1.0421753 6.3042603 2.562729 9.174469 4.561661c2.8872986 1.9989471 5.58667 4.5189667 8.098114 7.560074l13.479828 -11.506683c-1.9647522 -3.6732635 -4.800812 -6.919388 -8.508179 -9.738403c-3.690277 -2.8360977 -8.02124 -5.0400467 -12.992889 -6.611862c-4.9545593 -1.5888977 -10.216614 -2.3833466 -15.786224 -2.3833466z" fill-rule="evenodd"/></g></g></svg>