<svg version="1.1" viewBox="0.0 0.0 384.0 384.0" fill="none" stroke="none" stroke-linecap="square" stroke-miterlimit="10" xmlns:xlink="http://www.w3.org/1999/xlink" xmlns="http://www.w3.org/2000/svg"><clipPath id="p.0"><path d="m0 0l384.0 0l0 384.0l-384.0 0l0 -384.0z" clip-rule="nonzero"/></clipPath><g clip-path="url(#p.0)"><path fill="#000000" fill-opacity="0.0" d="m0 0l384.0 0l0 384.0l-384.0 0z" fill-rule="evenodd"/><g filter="url(#shadowFilter-p.1)"><use xlink:href="#p.1" transform=""/></g><defs><filter id="shadowFilter-p.1" filterUnits="userSpaceOnUse"><feGaussianBlur in="SourceAlpha" stdDeviation="5.0" result="blur"/><feComponentTransfer in="blur" color-interpolation-filters="sRGB"><feFuncR type="linear" slope="0" intercept="0.0"/><feFuncG type="linear" slope="0" intercept="0.0"/><feFuncB type="linear" slope="0" intercept="0.0"/><feFuncA type="linear" slope="1.0" intercept="0"/></feComponentTransfer></filter></defs><g id="p.1"><path fill="#000000" fill-opacity="0.0" d="m79.467636 136.36002l0 57.570175l-57.57 0l0 42.13092l57.57 0l0 57.517838l45.637306 0l0 -57.517838l57.88401 0l0 -42.13092l-57.88401 0l0 -57.570175z" fill-rule="evenodd"/><path fill="#000000" fill-opacity="0.0" d="m284.62442 77.84777l-64.007355 31.192574l9.315872 48.882324l36.321426 -17.215317l0 0l0 117.178085l-41.136368 0l0 48.254272l136.96425 0l0 -48.254272l-42.130768 0l0 -180.03766z" fill-rule="evenodd"/><path stroke="#000000" stroke-width="24.0" stroke-linejoin="round" stroke-linecap="butt" d="m79.467636 136.36002l0 57.570175l-57.57 0l0 42.13092l57.57 0l0 57.517838l45.637306 0l0 -57.517838l57.88401 0l0 -42.13092l-57.88401 0l0 -57.570175z" fill-rule="evenodd"/><path stroke="#000000" stroke-width="24.0" stroke-linejoin="round" stroke-linecap="butt" d="m284.62442 77.84777l-64.007355 31.192574l9.315872 48.882324l36.321426 -17.215317l0 0l0 117.178085l-41.136368 0l0 48.254272l136.96425 0l0 -48.254272l-42.130768 0l0 -180.03766z" fill-rule="evenodd"/></g><defs><linearGradient id="p.2" gradientUnits="userSpaceOnUse" gradientTransform="matrix(15.111625328918365 0.0 0.0 15.111625328918365 0.0 0.0)" spreadMethod="pad" x1="1.4490599213806596" y1="5.146930606386205" x2="1.4459824294167203" y2="20.258555621937983"><stop offset="0.0" stop-color="#ff7f7f"/><stop offset="0.17" stop-color="#ffff7f"/><stop offset="0.33" stop-color="#7fff7f"/><stop offset="0.5" stop-color="#7fffff"/><stop offset="0.67" stop-color="#7f7fff"/><stop offset="0.84" stop-color="#ff7fff"/><stop offset="1.0" stop-color="#ff7f7f"/></linearGradient></defs><path fill="url(#p.2)" d="m79.467636 136.36002l0 57.570175l-57.57 0l0 42.13092l57.57 0l0 57.517838l45.637306 0l0 -57.517838l57.88401 0l0 -42.13092l-57.88401 0l0 -57.570175z" fill-rule="evenodd"/><defs><linearGradient id="p.3" gradientUnits="userSpaceOnUse" gradientTransform="matrix(15.111625328918365 0.0 0.0 15.111625328918365 0.0 0.0)" spreadMethod="pad" x1="1.4490599213806596" y1="5.146930606386205" x2="1.4459824294167203" y2="20.258555621937983"><stop offset="0.0" stop-color="#ff7f7f"/><stop offset="0.17" stop-color="#ffff7f"/><stop offset="0.33" stop-color="#7fff7f"/><stop offset="0.5" stop-color="#7fffff"/><stop offset="0.67" stop-color="#7f7fff"/><stop offset="0.84" stop-color="#ff7fff"/><stop offset="1.0" stop-color="#ff7f7f"/></linearGradient></defs><path fill="url(#p.3)" d="m284.62442 77.84777l-64.007355 31.192574l9.315872 48.882324l36.321426 -17.215317l0 0l0 117.178085l-41.136368 0l0 48.254272l136.96425 0l0 -48.254272l-42.130768 0l0 -180.03766z" fill-rule="evenodd"/></g></svg>