<svg version="1.1" viewBox="0.0 0.0 384.0 384.0" fill="none" stroke="none" stroke-linecap="square" stroke-miterlimit="10" xmlns:xlink="http://www.w3.org/1999/xlink" xmlns="http://www.w3.org/2000/svg"><clipPath id="p.0"><path d="m0 0l384.0 0l0 384.0l-384.0 0l0 -384.0z" clip-rule="nonzero"/></clipPath><g clip-path="url(#p.0)"><path fill="#000000" fill-opacity="0.0" d="m0 0l384.0 0l0 384.0l-384.0 0z" fill-rule="evenodd"/><defs><radialGradient id="p.1" gradientUnits="userSpaceOnUse" gradientTransform="matrix(16.478136861386126 0.0 0.0 16.478136861386126 0.0 0.0)" spreadMethod="pad" cx="11.651802725945386" cy="11.651802725945386" fx="11.651802725945386" fy="11.651802725945386" r="16.47813606262207"><stop offset="0.0" stop-color="#7f7f7f"/><stop offset="1.0" stop-color="#202020"/></radialGradient></defs><path fill="url(#p.1)" d="m0 192.0l0 0c0 -106.03867 85.96133 -192.0 192.0 -192.0l0 0c50.92157 0 99.75751 20.228514 135.7645 56.235497c36.00699 36.00699 56.235504 84.84293 56.235504 135.7645l0 0c0 106.038666 -85.961334 192.0 -192.0 192.0l0 0c-106.03867 0 -192.0 -85.961334 -192.0 -192.0z" fill-rule="evenodd"/><g filter="url(#shadowFilter-p.2)"><use xlink:href="#p.2" transform=""/></g><defs><filter id="shadowFilter-p.2" filterUnits="userSpaceOnUse"><feGaussianBlur in="SourceAlpha" stdDeviation="7.5" result="blur"/><feComponentTransfer in="blur" color-interpolation-filters="sRGB"><feFuncR type="linear" slope="0" intercept="0.0"/><feFuncG type="linear" slope="0" intercept="0.0"/><feFuncB type="linear" slope="0" intercept="0.0"/><feFuncA type="linear" slope="1.0" intercept="0"/></feComponentTransfer></filter></defs><g id="p.2"><path fill="#000000" d="m192.62025 85.60137c-13.294052 0 -26.04744 3.7210922 -38.260162 11.163284c-12.2127075 7.4103928 -22.723923 17.858093 -31.533615 31.343086l31.962967 29.577942c5.470291 -10.145554 11.433533 -17.50824 17.889725 -22.088043c6.4562073 -4.611618 12.896515 -6.9174347 19.320908 -6.9174347c4.516159 0 8.428055 0.79512024 11.735657 2.3853302c3.3394165 1.5584106 5.9791565 3.7528992 7.9191895 6.5834656c1.9718475 2.8305817 2.9577637 6.201828 2.9577637 10.113754c0 3.8801117 -0.8905029 7.537613 -2.671524 10.972458c-1.7492218 3.403061 -4.150421 6.535782 -7.203598 9.398163c-3.0213776 2.8305664 -6.678833 5.327194 -10.972366 7.4898987c-4.2935333 2.13089 -8.984619 4.134552 -14.073257 6.0110016c-5.0568237 1.8446503 -10.431686 3.45076 -16.124603 4.818344l9.398071 38.35591l25.188736 0l2.9577637 -11.115585c8.777893 -2.544342 16.776596 -6.154129 23.996094 -10.829346c7.251297 -4.7070312 13.564377 -10.129654 18.939255 -16.267868c5.3748627 -6.1700134 9.572983 -12.769394 12.594376 -19.798141c3.0213623 -7.0287323 4.5320435 -14.168793 4.5320435 -21.42015c0 -11.322311 -3.037262 -21.515572 -9.111832 -30.57978c-6.04274 -9.096008 -14.248169 -16.236061 -24.616257 -21.420158c-10.336288 -5.1840897 -21.944733 -7.7761307 -34.825333 -7.7761307zm-5.0091248 160.34106c-7.410324 0 -13.468979 2.448944 -18.175964 7.3467865c-4.675171 4.866043 -7.0127716 11.210983 -7.0127716 19.034836c0 8.396332 2.1944733 14.8526 6.58342 19.368774c4.3889465 4.4844055 10.590729 6.726593 18.605316 6.726593c7.63295 0 13.787018 -2.4489136 18.462204 -7.3467712c4.7069855 -4.897827 7.0604706 -11.147369 7.0604706 -18.748596c0 -8.396332 -2.258072 -14.884399 -6.774246 -19.464203c-4.4843445 -4.611603 -10.733826 -6.9174194 -18.748428 -6.9174194z" fill-rule="evenodd"/><path stroke="#000000" stroke-width="24.0" stroke-linejoin="round" stroke-linecap="butt" d="m192.62025 85.60137c-13.294052 0 -26.04744 3.7210922 -38.260162 11.163284c-12.2127075 7.4103928 -22.723923 17.858093 -31.533615 31.343086l31.962967 29.577942c5.470291 -10.145554 11.433533 -17.50824 17.889725 -22.088043c6.4562073 -4.611618 12.896515 -6.9174347 19.320908 -6.9174347c4.516159 0 8.428055 0.79512024 11.735657 2.3853302c3.3394165 1.5584106 5.9791565 3.7528992 7.9191895 6.5834656c1.9718475 2.8305817 2.9577637 6.201828 2.9577637 10.113754c0 3.8801117 -0.8905029 7.537613 -2.671524 10.972458c-1.7492218 3.403061 -4.150421 6.535782 -7.203598 9.398163c-3.0213776 2.8305664 -6.678833 5.327194 -10.972366 7.4898987c-4.2935333 2.13089 -8.984619 4.134552 -14.073257 6.0110016c-5.0568237 1.8446503 -10.431686 3.45076 -16.124603 4.818344l9.398071 38.35591l25.188736 0l2.9577637 -11.115585c8.777893 -2.544342 16.776596 -6.154129 23.996094 -10.829346c7.251297 -4.7070312 13.564377 -10.129654 18.939255 -16.267868c5.3748627 -6.1700134 9.572983 -12.769394 12.594376 -19.798141c3.0213623 -7.0287323 4.5320435 -14.168793 4.5320435 -21.42015c0 -11.322311 -3.037262 -21.515572 -9.111832 -30.57978c-6.04274 -9.096008 -14.248169 -16.236061 -24.616257 -21.420158c-10.336288 -5.1840897 -21.944733 -7.7761307 -34.825333 -7.7761307zm-5.0091248 160.34106c-7.410324 0 -13.468979 2.448944 -18.175964 7.3467865c-4.675171 4.866043 -7.0127716 11.210983 -7.0127716 19.034836c0 8.396332 2.1944733 14.8526 6.58342 19.368774c4.3889465 4.4844055 10.590729 6.726593 18.605316 6.726593c7.63295 0 13.787018 -2.4489136 18.462204 -7.3467712c4.7069855 -4.897827 7.0604706 -11.147369 7.0604706 -18.748596c0 -8.396332 -2.258072 -14.884399 -6.774246 -19.464203c-4.4843445 -4.611603 -10.733826 -6.9174194 -18.748428 -6.9174194z" fill-rule="evenodd"/></g><g filter="url(#shadowFilter-p.3)"><use xlink:href="#p.3" transform=""/></g><defs><filter id="shadowFilter-p.3" filterUnits="userSpaceOnUse"><feGaussianBlur in="SourceAlpha" stdDeviation="7.5" result="blur"/><feComponentTransfer in="blur" color-interpolation-filters="sRGB"><feFuncR type="linear" slope="0" intercept="1.0"/><feFuncG type="linear" slope="0" intercept="1.0"/><feFuncB type="linear" slope="0" intercept="1.0"/><feFuncA type="linear" slope="1.0" intercept="0"/></feComponentTransfer></filter></defs><g id="p.3"><path fill="#ffffff" d="m192.62025 85.60137c-13.294052 0 -26.04744 3.7210922 -38.260162 11.163284c-12.2127075 7.4103928 -22.723923 17.858093 -31.533615 31.343086l31.962967 29.577942c5.470291 -10.145554 11.433533 -17.50824 17.889725 -22.088043c6.4562073 -4.611618 12.896515 -6.9174347 19.320908 -6.9174347c4.516159 0 8.428055 0.79512024 11.735657 2.3853302c3.3394165 1.5584106 5.9791565 3.7528992 7.9191895 6.5834656c1.9718475 2.8305817 2.9577637 6.201828 2.9577637 10.113754c0 3.8801117 -0.8905029 7.537613 -2.671524 10.972458c-1.7492218 3.403061 -4.150421 6.535782 -7.203598 9.398163c-3.0213776 2.8305664 -6.678833 5.327194 -10.972366 7.4898987c-4.2935333 2.13089 -8.984619 4.134552 -14.073257 6.0110016c-5.0568237 1.8446503 -10.431686 3.45076 -16.124603 4.818344l9.398071 38.35591l25.188736 0l2.9577637 -11.115585c8.777893 -2.544342 16.776596 -6.154129 23.996094 -10.829346c7.251297 -4.7070312 13.564377 -10.129654 18.939255 -16.267868c5.3748627 -6.1700134 9.572983 -12.769394 12.594376 -19.798141c3.0213623 -7.0287323 4.5320435 -14.168793 4.5320435 -21.42015c0 -11.322311 -3.037262 -21.515572 -9.111832 -30.57978c-6.04274 -9.096008 -14.248169 -16.236061 -24.616257 -21.420158c-10.336288 -5.1840897 -21.944733 -7.7761307 -34.825333 -7.7761307zm-5.0091248 160.34106c-7.410324 0 -13.468979 2.448944 -18.175964 7.3467865c-4.675171 4.866043 -7.0127716 11.210983 -7.0127716 19.034836c0 8.396332 2.1944733 14.8526 6.58342 19.368774c4.3889465 4.4844055 10.590729 6.726593 18.605316 6.726593c7.63295 0 13.787018 -2.4489136 18.462204 -7.3467712c4.7069855 -4.897827 7.0604706 -11.147369 7.0604706 -18.748596c0 -8.396332 -2.258072 -14.884399 -6.774246 -19.464203c-4.4843445 -4.611603 -10.733826 -6.9174194 -18.748428 -6.9174194z" fill-rule="evenodd"/></g></g></svg>